<svg width="242" height="240" viewBox="0 0 242 240" fill="none" xmlns="http://www.w3.org/2000/svg">
<rect width="242" height="240" rx="54" fill="white"/>
<path d="M59.0851 169.648V77.1092L40.3291 88.2801V81.5224L59.0851 70.3516H64.8774V169.648H59.0851Z" fill="#162730"/>
<path fill-rule="evenodd" clip-rule="evenodd" d="M202.708 169.648V127.917H227.128V169.648H202.708ZM227.128 109.827H202.623C202.263 104.634 200.765 100.514 198.129 97.464C195.137 93.873 190.977 92.0775 185.649 92.0775C182.238 92.0775 179.275 92.8854 176.761 94.5011C174.247 96.0576 172.272 98.2719 170.836 101.146C170.178 102.489 169.678 103.935 169.335 105.482C169.031 106.85 168.85 108.298 168.792 109.827L168.781 110.169L168.773 110.566V110.609L168.771 110.931L167.115 109.827H144.266C143.906 104.634 142.408 100.514 139.771 97.464C136.778 93.873 132.619 92.0775 127.292 92.0775C122.204 92.0775 118.104 93.8434 114.992 97.3751C112.144 100.615 110.625 104.765 110.434 109.827H85.8137V72.6843H107.361V83.3093C110.174 79.8447 113.615 76.9924 117.686 74.7505C123.072 71.8172 129.088 70.3516 135.732 70.3516C143.332 70.3516 149.557 71.9673 154.406 75.1989C158.455 77.8655 161.628 81.2649 163.926 85.3991C167.007 80.8461 170.986 77.265 175.863 74.6596C181.19 71.7876 187.085 70.3516 193.55 70.3516C204.623 70.3516 212.972 73.6424 218.599 80.2259C224.285 86.7502 227.128 95.311 227.128 105.904V109.827ZM85.8137 127.917V169.648H110.414V127.917H85.8137ZM168.771 127.917H144.351V169.648H168.771V127.917Z" fill="#162730"/>
<path d="M14.8721 109.047V130.594H39.2924V109.047H14.8721Z" fill="#162730"/>
</svg>
