<svg width="971" height="139" viewBox="0 0 971 139" fill="none" xmlns="http://www.w3.org/2000/svg">
<path d="M547.124 92.6719C547.92 98.4142 549.765 103.203 552.664 107.037C556.72 112.262 562.651 114.874 570.458 114.874C578.509 114.874 584.501 112.17 588.435 106.761C591.291 102.85 593.127 98.1544 593.941 92.6719H620.638C619.877 100.199 617.839 107.017 614.526 113.122C610.285 120.99 604.354 127.167 596.732 131.653C589.172 136.079 580.414 138.292 570.458 138.292C560.438 138.292 551.649 136.048 544.089 131.562C536.529 127.075 530.629 120.896 526.388 113.03C523.175 106.933 521.195 100.148 520.453 92.6719H547.124ZM923.749 33.1904C934.197 33.1905 943.079 35.6487 950.393 40.5654C957.707 45.4822 963.116 52.3971 966.619 61.3096C970.123 70.2222 971.352 80.7007 970.306 92.7471H900.392C901.175 98.7226 903.03 103.578 905.956 107.314C910.011 112.353 915.943 114.874 923.749 114.874C928.666 114.874 932.876 113.799 936.378 111.647C939.882 109.495 942.556 106.392 944.4 102.335L969.477 109.527C965.728 118.622 959.796 125.692 951.683 130.732C943.632 135.771 934.812 138.292 925.224 138.292C915.022 138.292 906.017 136.109 898.211 131.746C890.467 127.32 884.382 121.265 879.956 113.582C876.434 107.333 874.333 100.363 873.654 92.6719H892.218V74.125H892.219V92.6719H901.008V74.125H901.007V74.0967H874.544C875.592 68.4659 877.365 63.3111 879.865 58.6357C884.167 50.5834 890.097 44.3457 897.657 39.9199C905.216 35.4332 913.915 33.1904 923.749 33.1904ZM243.802 92.2373C244.207 92.3838 244.601 92.5283 244.983 92.6719H260.789C262.084 93.8362 263.144 95.0598 263.969 96.3438C266.243 99.7858 267.38 104.057 267.38 109.158C267.38 118.193 263.999 125.292 257.239 130.454C250.477 135.555 241.197 138.107 229.396 138.107C218.149 138.107 208.806 135.771 201.369 131.1C193.932 126.367 189.322 119.852 187.541 111.556L195.468 110.079C197.129 116.225 201 121.144 207.085 124.832C213.231 128.52 220.73 130.363 229.581 130.363C238.616 130.363 245.776 128.426 251.062 124.554C256.41 120.682 259.083 115.428 259.083 108.789C259.083 105.162 258.283 102.213 256.685 99.9395C255.088 97.6029 251.953 95.4828 247.282 93.5762C246.568 93.2821 245.801 92.9801 244.982 92.6719C244.6 92.5283 244.207 92.3837 243.802 92.2373ZM672.231 92.6719C672.235 96.2093 672.265 99.4304 672.323 102.335C672.446 105.408 673.092 107.866 674.259 109.71C676.472 113.215 680.005 115.12 684.861 115.429C689.717 115.735 695.095 115.489 700.995 114.689V135.525C694.112 136.817 687.351 137.369 680.712 137.185C674.137 137.063 668.236 135.924 663.012 133.774C657.849 131.561 653.914 128.027 651.21 123.173C648.752 118.623 647.461 114.014 647.338 109.343C647.216 104.609 647.154 99.262 647.154 93.3008V92.6719H672.231ZM307.885 102.52C307.885 106.822 307.916 110.295 307.978 112.938C308 113.412 308.039 113.88 308.094 114.345C308.349 116.468 308.955 118.489 309.914 120.406C312.126 124.832 315.63 127.566 320.423 128.61C325.217 129.594 331.488 129.44 339.232 128.15V135.525C334.253 136.633 329.335 137.032 324.48 136.724C319.624 136.478 315.292 135.341 311.481 133.312C307.671 131.223 304.812 128.09 302.907 123.909C301.432 120.652 300.601 117.363 300.418 114.045C300.233 110.664 300.141 106.822 300.141 102.52V92.6719H307.885V102.52ZM50.8911 92.6719V135.525H43.146V92.6719H50.8911ZM107.314 92.6719V135.525H99.5689V92.6719H107.314ZM142.655 92.6719V135.525H134.91V92.6719H142.655ZM383.626 135.525H358.365V92.6719H383.626V135.525ZM443.551 135.525H418.475V92.6719H443.551V135.525ZM503.478 135.525H478.401V92.6719H503.478V135.525ZM750.105 135.525H725.028V92.6719H750.105V135.525ZM817.203 104.917L821.394 92.6719H845.296L829.742 135.525H804.665L789.111 92.6719H813.012L817.203 104.917ZM240.653 91.1484C240.995 91.2625 241.332 91.3739 241.662 91.4863C241.332 91.3739 240.995 91.2625 240.653 91.1484ZM227.369 33.1904C234.453 33.1905 240.847 34.3434 246.547 36.6504L247.647 37.1055C253.292 39.4875 257.842 42.791 261.295 47.0195C264.921 51.3216 267.012 56.2991 267.565 61.9541L259.635 63.4287C258.468 56.4838 254.903 51.0133 248.941 47.0195C243.041 42.9629 235.666 40.9346 226.815 40.9346C218.518 40.8108 211.726 42.5029 206.44 46.0059C201.216 49.5088 198.603 54.0863 198.603 59.7412C198.603 62.877 199.495 65.5807 201.277 67.8545C203.06 70.0674 206.163 72.0967 210.588 73.9404L210.967 74.0967H196.088C198.228 76.0498 201.095 77.8709 204.689 79.5645C209.975 81.96 217.351 84.4491 226.816 87.0312C231.086 88.1925 234.86 89.2955 238.141 90.334C234.86 89.296 231.085 88.1938 226.815 87.0312C217.35 84.4491 209.974 81.96 204.688 79.5645C201.094 77.8728 198.226 76.05 196.086 74.0967C195.116 73.2104 194.296 72.2974 193.625 71.3584C191.535 68.2854 190.491 64.5362 190.491 60.1104C190.491 54.8246 192.057 50.1533 195.192 46.0967C198.327 42.04 202.66 38.8754 208.191 36.6016C213.723 34.3257 220.115 33.1904 227.369 33.1904ZM468.998 33.5596C480.368 33.5596 488.941 36.9387 494.719 43.6992C500.558 50.3989 503.478 59.1903 503.478 70.0684V74.0967H478.314C477.945 68.7641 476.407 64.5322 473.7 61.4004C470.627 57.7129 466.355 55.8692 460.884 55.8691C457.381 55.8691 454.339 56.6992 451.756 58.3584C449.175 59.9567 447.147 62.2304 445.672 65.1816C444.997 66.5609 444.483 68.0456 444.13 69.6338C443.818 71.0394 443.633 72.5267 443.573 74.0967H441.852L443.551 75.2285V75.2305L441.851 74.0967H418.388C418.019 68.7641 416.48 64.5322 413.772 61.4004C410.699 57.713 406.427 55.8691 400.958 55.8691C395.733 55.8692 391.523 57.683 388.328 61.3096C385.403 64.6361 383.843 68.898 383.647 74.0967H358.365V35.9551H380.491V46.8652C383.379 43.3075 386.913 40.3783 391.093 38.0762C396.625 35.0642 402.802 33.5596 409.625 33.5596C417.43 33.5596 423.822 35.2188 428.8 38.5371C432.958 41.2754 436.217 44.7664 438.577 49.0117C441.74 44.3364 445.827 40.6588 450.835 37.9834C456.305 35.0342 462.359 33.5596 468.998 33.5596ZM924.855 54.9482C916.312 54.9482 910.011 57.5612 905.956 62.7842C903.664 65.7456 902.028 69.5247 901.051 74.125H944.934C944.201 68.7377 942.763 64.5894 940.62 61.6787C937.424 57.1921 932.169 54.9483 924.855 54.9482ZM169.207 34.9414C172.956 34.6956 176.275 35.0341 179.164 35.9561V43.3311C175.046 42.4091 170.681 42.2555 166.072 42.8701C161.462 43.4233 157.16 45.5438 153.165 49.2314C149.661 52.489 147.172 56.2386 145.697 60.4795C144.283 64.7204 143.423 69.1149 143.116 73.6631C143.106 73.8076 143.095 73.9526 143.085 74.0967H134.91V35.9561H142.101V51.5537C142.59 50.6962 143.112 49.8607 143.668 49.0479C145.267 46.7123 146.834 44.8062 148.371 43.3311C151.075 40.6883 154.271 38.691 157.959 37.3389C161.708 35.9252 165.457 35.1258 169.207 34.9414ZM107.314 74.0967H99.5689V35.9561H107.314V74.0967ZM80.2085 7.00684H68.2232C62.4459 7.00685 58.1129 8.38962 55.2242 11.1553C52.3354 13.9211 50.8912 18.6846 50.8911 25.4453V35.9561H80.2085V43.7002H50.8911V74.0967H43.146V43.7002H25.0767V35.9561H43.146V24.708C43.146 22.1267 43.2997 19.7605 43.607 17.6094C43.9757 15.3967 44.5912 13.3683 45.4517 11.5244C46.3121 9.68069 47.51 7.92889 49.0464 6.26953C50.5215 4.73296 52.1507 3.503 53.9331 2.58105C55.777 1.65914 57.8055 1.01428 60.0181 0.645508C62.2307 0.215281 64.6584 2.75783e-06 67.3013 0H80.2085V7.00684ZM307.885 35.9551H339.232V43.6992H307.885V74.0967H300.141V43.6992H276.723V35.9551H300.141V8.29785H307.885V35.9551ZM570.458 33.1904C580.475 33.1905 589.264 35.4334 596.824 39.9199C604.445 44.4067 610.376 50.6141 614.618 58.543C617.177 63.2914 618.964 68.4761 619.979 74.0967H592.99C591.977 70.4395 590.426 67.2521 588.342 64.5361C584.348 59.2505 578.385 56.6075 570.458 56.6074C564.987 56.6074 560.501 57.8368 556.997 60.2949C553.494 62.7533 550.881 66.1653 549.16 70.5283C548.727 71.6703 548.349 72.8594 548.029 74.0967H521.112C522.137 68.3849 523.958 63.1392 526.573 58.3584C530.875 50.4315 536.806 44.253 544.366 39.8271C551.926 35.4033 560.623 33.1904 570.458 33.1904ZM672.231 35.9551H700.995V55.3154H672.231V74.0967H647.154V55.3154H630.19V35.9551H647.154V8.29785H672.231V35.9551ZM750.105 74.0967H725.028V35.9551H750.105V74.0967ZM806.656 74.0967H782.369L768.525 35.9551H793.602L806.656 74.0967ZM852.039 74.0967H827.751L840.805 35.9551H865.881L852.039 74.0967Z" fill="#162730"/>
<path d="M0 72.3762V94.5028H25.0769V72.3762H0Z" fill="#162730"/>
</svg>
